<svg width="78" height="80" viewBox="0 0 78 80" fill="none" xmlns="http://www.w3.org/2000/svg">
<g clip-path="url(#clip0)">
<path d="M3.00043 34.288C1.14378 35.3598 0 37.3407 0 39.4844V65.6574C0 70.2763 5.00013 73.163 9.00013 70.8535L66.3301 37.7521C68.1865 36.6803 69.33 34.6995 69.33 32.556V6.3913C69.33 1.77272 64.3304 -1.11405 60.3304 1.1949L3.00043 34.288Z" fill="#54A870"/>
<path d="M7.00043 38.288C5.14378 39.3598 4 41.3407 4 43.4844V69.6574C4 74.2763 9.00013 77.163 13.0001 74.8535L70.3301 41.7521C72.1865 40.6803 73.33 38.6995 73.33 36.556V10.3913C73.33 5.77272 68.3304 2.88595 64.3304 5.1949L7.00043 38.288Z" fill="#33BBFC" fill-opacity="0.8"/>
<path d="M12.0004 42.288C10.1438 43.3598 9 45.3407 9 47.4844V73.6574C9 78.2763 14.0001 81.163 18.0001 78.8535L75.3301 45.7521C77.1865 44.6803 78.33 42.6995 78.33 40.556V14.3913C78.33 9.77272 73.3304 6.88595 69.3304 9.1949L12.0004 42.288Z" fill="#EE6452" fill-opacity="0.8"/>
</g>
<defs>
<clipPath id="clip0">
<rect width="78" height="80" fill="white"/>
</clipPath>
</defs>
</svg>
